# xmcd CD database file
#
# Track frame offsets:
#	150
#	16866
#	38723
#	58431
#	72342
#	82350
#	94723
#	104847
#	117144
#	133121
#	146066
#	167564
#	174596
#	187869
#	199825
#	232964
#	245883
#	263469
#	281684
#	298030
#	310129
#
# Disc length: 4280 seconds
#
# Revision: 0
# Processed by: cddbd v1.5.2PL0 Copyright (c) Steve Scherf et al.
# Submitted via: CDex 1.51
#
DISCID=3d10b615
DTITLE=Blue Street Jazz Band - Then and Now Celebrating 20 Years (Disk 2)
DYEAR=2003
DGENRE=Jazz
TTITLE0=Chinatown
TTITLE1=After You've Gone
TTITLE2=All of Me
TTITLE3=Twelve Street Rag
TTITLE4=Jazz Baby
TTITLE5=Struttin' With Some BBQ
TTITLE6=Milenburg Joy
TTITLE7=South
TTITLE8=Sheik of Araby
TTITLE9=National Emblem
TTITLE10=Squeeze Me
TTITLE11=Last Night on the Back Porch
TTITLE12=Aunt Hagar's Blues
TTITLE13=I'm Coming Virginia
TTITLE14=Storyville Blues
TTITLE15=Hard Hearted Hannah
TTITLE16=Ashokan Farewell
TTITLE17=Maman Rosin Beaudreaux
TTITLE18=Great Bear Rag
TTITLE19=Gypsy Love Song
TTITLE20=Mama's Cookin'
EXTD=YEAR: 2003
EXTT0=
EXTT1=
EXTT2=
EXTT3=
EXTT4=
EXTT5=
EXTT6=
EXTT7=
EXTT8=
EXTT9=
EXTT10=
EXTT11=
EXTT12=
EXTT13=
EXTT14=
EXTT15=
EXTT16=
EXTT17=
EXTT18=
EXTT19=
EXTT20=
PLAYORDER=
